<?xml version="1.0" standalone="no"?><!DOCTYPE svg PUBLIC "-//W3C//DTD SVG 1.1//EN" "http://www.w3.org/Graphics/SVG/1.1/DTD/svg11.dtd"><svg t="1673941184576" class="icon" viewBox="0 0 1024 1024" version="1.1" xmlns="http://www.w3.org/2000/svg" p-id="11793" xmlns:xlink="http://www.w3.org/1999/xlink" width="200" height="200"><path d="M864 544v-64h160v64h-160z m-125.728-303.68l113.152-112.96 45.248 45.12-113.152 113.28zM480 0h64v160h-64V0z m352 512A320 320 0 1 1 512 192a320 320 0 0 1 320 320zM256 512a256 256 0 1 0 256-256 256 256 0 0 0-256 256zM127.328 172.48l45.248-45.12 113.152 112.96-45.248 45.44zM160 544H0v-64h160v64z m125.728 239.68l-113.152 112.96-45.248-45.12 113.152-113.28zM544 1024h-64v-160h64v160z m352.672-172.48l-45.248 45.12-113.152-112.96 45.248-45.44z" fill="#6EA3E5" p-id="11794"></path></svg>